User Type,Username,Date,Text
,Macsonic,2011-09-28T06:31Z,Specs? previews?
,raphael76,2011-10-09T18:05Z,"Format                           : Matroska
File size                        : 696 MiB
Duration                         : 1h 41mn
Overall bit rate                 : 959 Kbps
Movie name                       : Avidemux
Writing application              : Lavf52.78.3
Writing library                  : Lavf52.78.3

Video
ID                               : 1
Format                           : AVC
Format/Info                      : Advanced Video Codec
Format profile                   : High@L3.0
Format settings, CABAC           : Yes
Format settings, ReFrames        : 4 frames
Muxing mode                      : Container profile=Unknown@3.0
Codec ID                         : V_MPEG4/ISO/AVC
Duration                         : 1h 41mn
Bit rate                         : 812 Kbps
Width                            : 624 pixels
Height                           : 376 pixels
Display aspect ratio             : 1.660
Frame rate mode                  : Variable
Frame rate                       : 29.970 fps
Color space                      : YUV
Chroma subsampling               : 4:2:0
Bit depth                        : 8 bits
Scan type                        : Progressive
Bits/(Pixel*Frame)               : 0.115
Stream size                      : 589 MiB (85%)
Writing library                  : x264 core 106 r1732 b20059a

Audio
ID                               : 2
Format                           : MPEG Audio
Format version                   : Version 1
Format profile                   : Layer 2
Codec ID                         : A_MPEG/L2
Codec ID/Hint                    : MP2
Duration                         : 1h 41mn
Bit rate mode                    : Constant
Bit rate                         : 128 Kbps
Channel(s)                       : 2 channels
Sampling rate                    : 48.0 KHz
Video delay                      : -33ms
Stream size                      : 92.9 MiB (13%)"
